<?xml version="1.0" standalone="no"?>
<!DOCTYPE svg PUBLIC "-//W3C//DTD SVG 20010904//EN"
 "http://www.w3.org/TR/2001/REC-SVG-20010904/DTD/svg10.dtd">
<svg version="1.0" xmlns="http://www.w3.org/2000/svg"
 width="512.000000pt" height="512.000000pt" viewBox="0 0 512.000000 512.000000"
 preserveAspectRatio="xMidYMid meet">
<metadata>
Created by potrace 1.11, written by Peter Selinger 2001-2013
</metadata>
<g transform="translate(0.000000,512.000000) scale(0.100000,-0.100000)"
fill="#000000" stroke="none">
<path d="M0 2560 l0 -2560 2560 0 2560 0 0 2560 0 2560 -2560 0 -2560 0 0
-2560z m2770 1690 c100 -12 190 -31 190 -39 0 -3 -19 -18 -43 -33 -147 -93
-292 -283 -336 -441 l-18 -62 -99 -6 c-424 -28 -805 -319 -953 -729 -51 -141
-56 -176 -55 -385 0 -233 3 -250 94 -467 18 -43 37 -78 41 -78 5 0 9 -5 9 -11
0 -27 81 -131 174 -225 109 -109 210 -180 321 -226 38 -16 78 -33 87 -38 9 -5
54 -19 100 -32 73 -20 107 -22 278 -22 173 0 204 2 280 23 46 13 91 27 100 31
8 5 44 20 80 35 100 43 220 126 313 217 91 89 157 171 157 194 0 12 -69 14
-465 14 l-465 0 0 295 0 295 851 0 852 0 -6 -112 c-7 -124 -9 -144 -39 -268
-50 -212 -117 -367 -241 -558 -73 -113 -95 -140 -217 -262 -114 -113 -156
-149 -224 -192 -28 -18 -53 -35 -56 -38 -11 -13 -149 -87 -220 -119 -41 -18
-84 -37 -95 -42 -65 -30 -289 -86 -395 -99 -108 -13 -311 -13 -420 0 -102 12
-331 70 -395 99 -11 5 -58 26 -105 47 -47 20 -92 42 -100 49 -8 6 -22 15 -30
18 -24 9 -179 112 -224 149 -52 42 -220 209 -270 268 -21 25 -50 65 -64 90
-14 25 -29 47 -32 50 -6 5 -33 50 -78 129 -81 144 -161 401 -182 580 -13 111
-13 312 0 423 20 175 97 418 185 583 31 60 140 231 155 245 3 3 34 39 70 80
79 91 69 81 160 160 41 36 77 67 80 70 5 5 103 69 200 131 56 36 234 114 325
142 77 25 213 56 285 66 92 12 340 13 440 1z m789 -411 c134 -49 227 -156 265
-307 20 -79 20 -102 1 -177 -22 -86 -60 -152 -121 -212 -202 -198 -536 -142
-663 110 -55 110 -63 198 -27 311 21 66 98 195 117 196 4 0 33 18 65 39 83 55
142 71 234 65 41 -3 99 -14 129 -25z"/>
</g>
</svg>
